<?xml version="1.0" encoding="UTF-8" ?>
<!DOCTYPE svg PUBLIC "-//W3C//DTD SVG 1.1//EN" "http://www.w3.org/Graphics/SVG/1.1/DTD/svg11.dtd">
<svg width="1254pt" height="1254pt" viewBox="0 0 1254 1254" version="1.1" xmlns="http://www.w3.org/2000/svg">
<g id="#000000ff">
</g>
<g id="#ae1010ff">
<path fill="#ae1010" opacity="1.00" d=" M 366.02 7.14 C 416.34 6.71 466.69 7.10 517.02 6.95 C 631.67 6.95 746.32 6.93 860.98 6.95 C 871.99 7.20 883.06 6.28 894.01 7.72 C 907.68 8.04 921.36 7.71 935.02 7.99 C 940.96 9.11 947.01 8.48 953.00 8.92 C 988.34 10.76 1023.99 14.91 1057.66 26.38 C 1117.20 46.34 1168.58 88.91 1199.91 143.25 C 1223.81 185.34 1234.02 233.99 1235.40 281.99 C 1237.45 292.88 1235.02 304.09 1236.92 315.01 C 1237.31 323.99 1236.98 333.00 1237.10 342.00 C 1237.10 539.01 1237.11 736.03 1237.06 933.04 C 1235.34 945.29 1237.27 957.76 1235.32 969.98 C 1235.04 974.42 1235.65 978.94 1234.44 983.30 C 1231.60 1023.30 1221.62 1063.14 1202.76 1098.69 C 1183.88 1133.72 1156.67 1164.21 1123.93 1186.85 C 1092.52 1208.77 1055.98 1222.89 1018.30 1229.33 C 996.41 1233.50 974.15 1234.55 952.01 1235.96 C 945.98 1235.87 939.97 1236.09 934.01 1236.95 C 734.67 1237.02 535.33 1236.87 335.98 1236.90 C 329.27 1237.29 322.66 1235.69 315.95 1235.92 C 309.01 1235.63 302.02 1236.44 295.14 1235.32 C 289.75 1234.79 284.28 1235.32 278.95 1234.12 C 239.36 1232.44 199.65 1224.30 163.68 1207.31 C 145.03 1198.54 127.57 1187.31 111.58 1174.34 C 107.38 1170.19 102.29 1167.10 98.44 1162.60 C 81.86 1146.91 67.37 1129.05 55.52 1109.54 C 32.34 1071.45 20.48 1027.30 16.73 983.13 C 15.52 978.08 16.82 972.84 15.54 967.81 C 14.53 956.92 16.16 945.88 14.37 935.04 C 14.41 731.70 14.31 528.35 14.34 325.00 C 14.40 320.30 13.90 315.57 14.85 310.93 C 15.80 302.10 14.45 293.14 15.47 284.31 C 16.64 279.30 15.62 274.12 16.59 269.09 C 19.87 219.51 33.28 169.64 61.27 128.12 C 78.90 101.70 101.71 78.89 127.55 60.48 C 148.17 45.73 171.00 34.08 195.16 26.35 C 222.57 17.25 251.28 12.89 279.93 10.08 C 289.96 9.32 300.01 8.70 310.07 8.62 C 328.67 6.90 347.42 8.77 366.02 7.14 M 602.58 282.95 C 518.61 288.70 437.47 329.83 383.86 394.83 C 380.55 398.41 379.35 403.30 378.67 408.00 C 377.59 419.70 386.40 431.15 397.90 433.37 C 406.95 435.18 416.61 431.45 422.66 424.62 C 468.31 371.26 536.34 338.68 606.09 333.49 C 617.35 332.71 628.69 332.03 639.96 333.22 C 695.42 335.77 749.53 357.26 792.51 392.23 C 820.08 414.46 842.60 442.72 858.81 474.16 C 863.47 481.08 871.59 485.89 880.04 485.79 C 886.98 485.81 893.94 482.76 898.44 477.45 C 902.33 472.93 904.17 466.93 904.48 461.06 C 904.70 454.60 901.12 449.02 898.35 443.47 C 864.07 379.71 806.16 329.43 738.78 303.22 C 705.47 290.25 669.87 283.11 634.13 282.28 C 623.63 281.14 613.09 282.63 602.58 282.95 M 516.70 437.00 C 508.09 437.96 500.30 444.18 497.60 452.42 C 495.48 458.06 496.42 464.16 496.23 470.04 C 496.29 579.38 496.15 688.72 496.36 798.05 C 496.03 808.51 504.10 818.23 514.17 820.49 C 520.90 821.50 528.17 820.78 534.00 817.02 C 568.37 795.65 602.98 774.67 637.48 753.52 C 692.03 720.07 746.52 686.50 801.06 653.03 C 809.26 649.12 815.42 641.01 816.42 631.91 C 817.55 622.10 812.71 611.88 804.45 606.48 C 751.79 574.15 698.87 542.25 646.20 509.93 C 609.89 487.92 573.92 465.35 537.56 443.41 C 531.53 439.15 524.27 435.73 516.70 437.00 M 343.00 475.90 C 336.91 480.18 333.19 487.57 333.29 495.00 C 333.36 576.34 333.30 657.67 333.36 739.01 C 333.38 752.44 347.10 762.88 360.04 761.22 C 365.87 759.86 371.68 757.32 375.45 752.48 C 379.46 747.99 381.18 741.92 381.16 735.99 C 381.15 655.32 381.24 574.65 381.14 493.98 C 380.43 484.55 373.92 475.62 364.89 472.56 C 357.65 469.90 349.11 471.15 343.00 475.90 M 953.46 506.75 C 941.87 508.39 932.41 519.18 932.66 530.95 C 932.68 591.31 932.74 651.68 932.74 712.04 C 932.78 717.11 932.26 722.30 933.74 727.25 C 936.11 735.29 943.13 741.55 951.13 743.75 C 962.85 746.80 976.17 739.58 979.77 727.97 C 981.46 722.14 980.52 715.98 980.77 710.00 C 980.74 652.33 980.77 594.66 980.83 536.99 C 980.78 531.67 981.37 526.03 978.88 521.11 C 974.80 511.37 963.89 505.29 953.46 506.75 M 279.48 523.63 C 268.41 525.50 259.71 535.79 259.81 547.03 C 259.96 570.68 259.56 594.34 260.13 617.98 C 259.36 639.31 260.34 660.64 260.01 681.97 C 260.58 688.65 258.92 695.78 261.93 702.07 C 266.16 712.03 277.83 718.26 288.45 715.82 C 299.06 713.82 307.68 703.95 307.70 693.08 C 307.62 643.75 307.75 594.42 307.67 545.10 C 307.11 531.43 292.79 520.69 279.48 523.63 M 869.14 548.37 C 861.38 552.46 856.86 561.38 857.12 570.00 C 857.23 605.68 857.07 641.36 857.17 677.04 C 857.60 689.28 868.90 699.51 881.01 699.37 C 889.75 699.00 898.30 694.00 902.41 686.19 C 904.80 681.55 905.43 676.22 905.26 671.07 C 905.17 636.37 905.31 601.68 905.16 566.98 C 904.02 558.81 899.07 550.93 891.44 547.44 C 884.42 544.32 875.76 544.21 869.14 548.37 M 426.41 557.62 C 416.13 560.25 408.31 570.41 408.61 581.05 C 408.59 607.04 408.55 633.03 408.57 659.02 C 408.24 672.98 422.48 685.00 436.20 682.25 C 444.36 680.87 451.65 675.28 454.69 667.52 C 457.02 662.34 456.30 656.54 456.45 651.03 C 456.47 627.03 456.53 603.03 456.45 579.04 C 455.73 564.77 440.20 553.41 426.41 557.62 M 1033.95 556.87 C 1028.85 557.56 1024.04 559.84 1020.09 563.10 C 1015.10 567.57 1012.23 574.26 1012.37 580.95 C 1012.38 604.33 1012.23 627.71 1012.36 651.08 C 1012.66 662.92 1023.12 673.34 1034.95 673.61 C 1047.59 674.66 1059.84 663.81 1060.01 651.06 C 1060.24 627.34 1060.04 603.62 1060.10 579.91 C 1060.07 566.60 1047.10 555.34 1033.95 556.87 M 205.47 572.61 C 194.74 574.83 186.28 584.93 186.27 595.94 C 186.23 612.65 186.23 629.36 186.27 646.08 C 186.33 656.19 193.85 665.40 203.41 668.29 C 214.72 671.99 227.96 665.24 232.18 654.25 C 234.39 649.12 233.77 643.44 233.87 638.01 C 233.85 623.31 233.98 608.60 233.79 593.90 C 233.06 580.24 218.76 569.70 205.47 572.61 M 872.54 758.73 C 867.72 759.81 863.27 762.30 859.79 765.80 C 856.07 769.07 854.67 773.98 851.98 777.99 C 824.18 825.55 780.51 863.26 730.19 885.35 C 682.43 906.54 628.35 912.84 576.96 903.64 C 512.35 892.04 451.88 856.36 412.30 803.73 C 408.81 799.93 404.19 797.18 399.18 795.93 C 387.32 792.73 373.67 800.86 371.03 812.90 C 369.54 819.77 370.09 827.74 374.78 833.33 C 415.80 887.86 475.93 927.13 541.56 945.13 C 568.71 952.65 596.92 955.80 625.03 956.18 C 630.34 955.89 635.65 955.66 640.97 955.49 C 703.30 952.40 764.11 929.26 813.83 891.77 C 846.45 867.17 874.20 836.07 894.68 800.69 C 897.20 795.59 901.20 790.93 901.51 785.01 C 902.42 775.37 897.49 764.93 888.52 760.73 C 883.63 758.17 877.90 757.90 872.54 758.73 Z" />
</g>
<g id="#fcf4f5ff">
<path fill="#fcf4f5" opacity="1.00" d=" M 602.58 282.95 C 613.09 282.63 623.63 281.14 634.13 282.28 C 669.87 283.11 705.47 290.25 738.78 303.22 C 806.16 329.43 864.07 379.71 898.35 443.47 C 901.12 449.02 904.70 454.60 904.48 461.06 C 904.17 466.93 902.33 472.93 898.44 477.45 C 893.94 482.76 886.98 485.81 880.04 485.79 C 871.59 485.89 863.47 481.08 858.81 474.16 C 842.60 442.72 820.08 414.46 792.51 392.23 C 749.53 357.26 695.42 335.77 639.96 333.22 C 628.69 332.03 617.35 332.71 606.09 333.49 C 536.34 338.68 468.31 371.26 422.66 424.62 C 416.61 431.45 406.95 435.18 397.90 433.37 C 386.40 431.15 377.59 419.70 378.67 408.00 C 379.35 403.30 380.55 398.41 383.86 394.83 C 437.47 329.83 518.61 288.70 602.58 282.95 Z" />
<path fill="#fcf4f5" opacity="1.00" d=" M 516.70 437.00 C 524.27 435.73 531.53 439.15 537.56 443.41 C 573.92 465.35 609.89 487.92 646.20 509.93 C 698.87 542.25 751.79 574.15 804.45 606.48 C 812.71 611.88 817.55 622.10 816.42 631.91 C 815.42 641.01 809.26 649.12 801.06 653.03 C 746.52 686.50 692.03 720.07 637.48 753.52 C 602.98 774.67 568.37 795.65 534.00 817.02 C 528.17 820.78 520.90 821.50 514.17 820.49 C 504.10 818.23 496.03 808.51 496.36 798.05 C 496.15 688.72 496.29 579.38 496.23 470.04 C 496.42 464.16 495.48 458.06 497.60 452.42 C 500.30 444.18 508.09 437.96 516.70 437.00 Z" />
<path fill="#fcf4f5" opacity="1.00" d=" M 343.00 475.90 C 349.11 471.15 357.65 469.90 364.89 472.56 C 373.92 475.62 380.43 484.55 381.14 493.98 C 381.24 574.65 381.15 655.32 381.16 735.99 C 381.18 741.92 379.46 747.99 375.45 752.48 C 371.68 757.32 365.87 759.86 360.04 761.22 C 347.10 762.88 333.38 752.44 333.36 739.01 C 333.30 657.67 333.36 576.34 333.29 495.00 C 333.19 487.57 336.91 480.18 343.00 475.90 Z" />
<path fill="#fcf4f5" opacity="1.00" d=" M 953.46 506.75 C 963.89 505.29 974.80 511.37 978.88 521.11 C 981.37 526.03 980.78 531.67 980.83 536.99 C 980.77 594.66 980.74 652.33 980.77 710.00 C 980.52 715.98 981.46 722.14 979.77 727.97 C 976.17 739.58 962.85 746.80 951.13 743.75 C 943.13 741.55 936.11 735.29 933.74 727.25 C 932.26 722.30 932.78 717.11 932.74 712.04 C 932.74 651.68 932.68 591.31 932.66 530.95 C 932.41 519.18 941.87 508.39 953.46 506.75 Z" />
<path fill="#fcf4f5" opacity="1.00" d=" M 279.48 523.63 C 292.79 520.69 307.11 531.43 307.67 545.10 C 307.75 594.42 307.62 643.75 307.70 693.08 C 307.68 703.95 299.06 713.82 288.45 715.82 C 277.83 718.26 266.16 712.03 261.93 702.07 C 258.92 695.78 260.58 688.65 260.01 681.97 C 260.34 660.64 259.36 639.31 260.13 617.98 C 259.56 594.34 259.96 570.68 259.81 547.03 C 259.71 535.79 268.41 525.50 279.48 523.63 Z" />
<path fill="#fcf4f5" opacity="1.00" d=" M 869.14 548.37 C 875.76 544.21 884.42 544.32 891.44 547.44 C 899.07 550.93 904.02 558.81 905.16 566.98 C 905.31 601.68 905.17 636.37 905.26 671.07 C 905.43 676.22 904.80 681.55 902.41 686.19 C 898.30 694.00 889.75 699.00 881.01 699.37 C 868.90 699.51 857.60 689.28 857.17 677.04 C 857.07 641.36 857.23 605.68 857.12 570.00 C 856.86 561.38 861.38 552.46 869.14 548.37 Z" />
<path fill="#fcf4f5" opacity="1.00" d=" M 426.41 557.62 C 440.20 553.41 455.73 564.77 456.45 579.04 C 456.53 603.03 456.47 627.03 456.45 651.03 C 456.30 656.54 457.02 662.34 454.69 667.52 C 451.65 675.28 444.36 680.87 436.20 682.25 C 422.48 685.00 408.24 672.98 408.57 659.02 C 408.55 633.03 408.59 607.04 408.61 581.05 C 408.31 570.41 416.13 560.25 426.41 557.62 Z" />
<path fill="#fcf4f5" opacity="1.00" d=" M 1033.95 556.87 C 1047.10 555.34 1060.07 566.60 1060.10 579.91 C 1060.04 603.62 1060.24 627.34 1060.01 651.06 C 1059.84 663.81 1047.59 674.66 1034.95 673.61 C 1023.12 673.34 1012.66 662.92 1012.36 651.08 C 1012.23 627.71 1012.38 604.33 1012.37 580.95 C 1012.23 574.26 1015.10 567.57 1020.09 563.10 C 1024.04 559.84 1028.85 557.56 1033.95 556.87 Z" />
<path fill="#fcf4f5" opacity="1.00" d=" M 205.47 572.61 C 218.76 569.70 233.06 580.24 233.79 593.90 C 233.98 608.60 233.85 623.31 233.87 638.01 C 233.77 643.44 234.39 649.12 232.18 654.25 C 227.96 665.24 214.72 671.99 203.41 668.29 C 193.85 665.40 186.33 656.19 186.27 646.08 C 186.23 629.36 186.23 612.65 186.27 595.94 C 186.28 584.93 194.74 574.83 205.47 572.61 Z" />
<path fill="#fcf4f5" opacity="1.00" d=" M 872.54 758.73 C 877.90 757.90 883.63 758.17 888.52 760.73 C 897.49 764.93 902.42 775.37 901.51 785.01 C 901.20 790.93 897.20 795.59 894.68 800.69 C 874.20 836.07 846.45 867.17 813.83 891.77 C 764.11 929.26 703.30 952.40 640.97 955.49 C 635.65 955.66 630.34 955.89 625.03 956.18 C 596.92 955.80 568.71 952.65 541.56 945.13 C 475.93 927.13 415.80 887.86 374.78 833.33 C 370.09 827.74 369.54 819.77 371.03 812.90 C 373.67 800.86 387.32 792.73 399.18 795.93 C 404.19 797.18 408.81 799.93 412.30 803.73 C 451.88 856.36 512.35 892.04 576.96 903.64 C 628.35 912.84 682.43 906.54 730.19 885.35 C 780.51 863.26 824.18 825.55 851.98 777.99 C 854.67 773.98 856.07 769.07 859.79 765.80 C 863.27 762.30 867.72 759.81 872.54 758.73 Z" />
</g>
</svg>
